<svg width="347" height="182" viewBox="0 0 347 182" fill="none" xmlns="http://www.w3.org/2000/svg">
<g opacity="0.3">
<path d="M3 40.95L9.47644 94.1479C9.74839 96.3817 12.9311 96.5339 13.415 94.3362L19.2377 67.893C19.2876 67.6661 19.3768 67.4496 19.501 67.2533L26.8537 55.6388C27.8576 54.053 30.2959 54.5987 30.5282 56.4612L36.639 105.468C36.6654 105.68 36.7255 105.886 36.8169 106.078L46.5936 126.67C47.4317 128.435 50.0436 128.074 50.3719 126.148L59.6881 71.4879C59.9649 69.8642 61.9758 69.2523 63.11 70.4467L65.8301 73.3113C66.8985 74.4363 68.7855 73.9693 69.2057 72.4758L77.9312 41.4639C78.5329 39.3252 81.6515 39.6153 81.8486 41.8283L84.8615 75.6722C85.049 77.778 87.9498 78.1908 88.7172 76.2209L101.548 43.285C102.014 42.089 103.47 41.6353 104.533 42.3548L115.484 49.7688C116.419 50.4015 117.692 50.136 118.296 49.1824L133.075 25.8367C134.087 24.2372 136.549 24.8091 136.753 26.6912L142.216 77.1432C142.433 79.1486 145.146 79.6079 146.011 77.7857L155.585 57.6213C156.461 55.7761 159.214 56.2763 159.385 58.3117L164.043 113.779C164.244 116.167 167.71 116.246 168.019 113.87L172.746 77.604C172.876 76.6078 173.725 75.8625 174.729 75.8625H183.636C184.496 75.8625 185.26 76.4127 185.533 77.2287L193.336 100.585C193.928 102.355 196.406 102.422 197.093 100.687L210.801 66.0401C211.55 64.1474 214.318 64.4528 214.636 66.4633L217.653 85.5227C217.968 87.5134 220.697 87.8408 221.474 85.9811L235.377 52.7051C235.792 51.7118 236.919 51.2252 237.927 51.6041L257.301 58.8909C257.882 59.1095 258.329 59.5854 258.51 60.1791L272.331 105.459C272.397 105.676 272.5 105.881 272.635 106.064L283.137 120.283C283.362 120.588 283.669 120.823 284.022 120.96L312.36 131.954C313.048 132.221 313.533 132.845 313.622 133.577L314.107 137.559C314.392 139.906 317.797 139.902 318.078 137.555L323.422 92.937C323.457 92.6411 323.558 92.3568 323.717 92.105L334 75.8625" stroke="#353945"/>
<path d="M1 26.5417L13.598 98.8475C14.0013 101.162 17.3743 101.006 17.5619 98.6638L20.5773 61.0164C20.5918 60.8347 20.6312 60.6557 20.6942 60.4847L26.4417 44.8849C27.1604 42.9341 30.0091 43.2389 30.2989 45.2976L40.4284 117.268C40.4539 117.449 40.5044 117.627 40.5784 117.795L52.497 144.862C53.3214 146.734 56.0923 146.307 56.3155 144.274L64.4477 70.1824C64.7054 67.8346 68.1054 67.7946 68.4181 70.1357L70.3522 84.6118C70.6387 86.7567 73.6535 86.9819 74.2556 84.9034L84.1825 50.6336C84.7405 48.7074 87.4703 48.7094 88.0254 50.6365L95.3775 76.1593C95.9576 78.1733 98.8512 78.052 99.2608 75.9966L107.722 33.5386C108.151 31.3822 111.24 31.3976 111.648 33.5582L116.518 59.3373C116.908 61.4011 119.809 61.5457 120.402 59.5308L135.409 8.54909C136.012 6.50142 138.974 6.69576 139.304 8.80463L149.839 76.1214C150.161 78.1807 153.025 78.4353 153.705 76.4651L163.916 46.9053C164.63 44.8377 167.669 45.2529 167.802 47.4363L172.508 124.467C172.659 126.941 176.286 126.985 176.497 124.516L181.599 64.9285C181.742 63.2507 183.769 62.4906 184.98 63.66L193.621 71.9989C193.894 72.2621 194.086 72.5974 194.176 72.9657L202.375 106.697C202.865 108.714 205.724 108.741 206.252 106.734L220.559 52.3709C221.099 50.3191 224.042 50.4094 224.455 52.4906L230.912 85.0234C231.33 87.1308 234.324 87.186 234.82 85.0955L245.371 40.6004C245.716 39.1471 247.474 38.5706 248.612 39.5379L292.3 76.6623C292.806 77.0923 293.065 77.7455 292.993 78.4056L288.68 117.509C288.468 119.433 290.84 120.506 292.145 119.077L298.932 111.643C299.947 110.533 301.778 110.897 302.29 112.311L313.245 142.567L324.651 173.59C325.389 175.596 328.335 175.203 328.521 173.074L335.23 96.0674C335.25 95.838 335.31 95.6137 335.406 95.4044L346 72.4019" stroke="#777E91"/>
</g>
</svg>
