<svg width="14" height="13" viewBox="0 0 14 13" fill="none" xmlns="http://www.w3.org/2000/svg">
<path d="M6.42617 0.954822C6.6433 0.451664 7.35674 0.451664 7.57387 0.954822L8.93639 4.11225C9.02832 4.3253 9.23073 4.46988 9.46209 4.48776L12.9562 4.75776C13.5169 4.80107 13.7396 5.50486 13.306 5.86286L10.6783 8.0324C10.4929 8.18543 10.4118 8.43119 10.4695 8.66451L11.2782 11.9322C11.4112 12.4696 10.8315 12.9018 10.3544 12.621L7.3171 10.8329C7.12141 10.7177 6.87863 10.7177 6.68294 10.8329L3.64561 12.621C3.16855 12.9018 2.58884 12.4696 2.72183 11.9322L3.53055 8.66451C3.58829 8.43119 3.50712 8.18543 3.32177 8.0324L0.694029 5.86286C0.260429 5.50486 0.483182 4.80107 1.0438 4.75776L4.53796 4.48776C4.76931 4.46988 4.97172 4.3253 5.06365 4.11225L6.42617 0.954822Z" fill="#353945"/>
</svg>
