<svg width="145" height="480" viewBox="0 0 145 480" fill="none" xmlns="http://www.w3.org/2000/svg">
<path d="M291.109 224.149C-33.3542 206.174 20.765 189.352 11.5194 327.77C2.27382 466.187 330.556 516.603 447.164 403.469C503.732 348.587 569.957 117.648 433.788 96.0778C401.25 90.9235 353.688 227.616 291.109 224.149Z" fill="#FF7A00"/>
<path d="M380.21 337.267C372.432 363.362 355.215 384.839 332.781 399.512C303.129 418.905 264.362 426.412 226.229 416.986C188.096 407.559 54.2829 429.331 39.4672 398.946C28.2579 375.956 31.6898 326.78 39.4673 300.685C48.3265 270.961 163.909 252.767 191.023 238.257C219.175 223.193 257.5 189.153 291.62 197.587C331.649 207.482 375.507 222.187 389.535 254.693C398.981 276.582 387.476 312.888 380.21 337.267Z" fill="#FF29A8"/>
<ellipse cx="218.839" cy="171.502" rx="218.839" ry="171.502" transform="matrix(-0.998469 -0.0553137 0.0666462 -0.997777 437.007 366.451)" fill="#FFD481"/>
</svg>
